<svg xmlns="http://www.w3.org/2000/svg" viewBox="0 0 1984.3 1984.3">
  <path fill="none" d="M0 0h1984.3v1984.3H0z"/>
  <path fill="none" d="M362.5 682.4h1259.2v327.2H362.5z"/>
  <path d="M553.6 845.4l50.4 16c-7.7 28.1-20.6 49-38.6 62.7-18 13.7-40.8 20.5-68.5 20.5-34.2 0-62.3-11.7-84.4-35.1-22-23.4-33-55.3-33-95.9 0-42.9 11.1-76.2 33.2-99.9s51.3-35.6 87.4-35.6c31.5 0 57.1 9.3 76.8 27.9 11.7 11 20.5 26.8 26.4 47.5l-51.5 12.3c-3-13.4-9.4-23.9-19.1-31.6s-21.4-11.6-35.2-11.6c-19.1 0-34.6 6.9-46.5 20.6-11.9 13.7-17.8 35.9-17.8 66.6 0 32.6 5.9 55.8 17.6 69.6 11.7 13.8 27 20.7 45.7 20.7 13.8 0 25.7-4.4 35.7-13.2 9.9-8.8 17.1-22.6 21.4-41.5zm111.1-1.2c0-16.4 4-32.3 12.1-47.6 8.1-15.4 19.5-27.1 34.4-35.2 14.8-8.1 31.4-12.1 49.7-12.1 28.2 0 51.4 9.2 69.4 27.5 18 18.3 27.1 41.5 27.1 69.5 0 28.2-9.1 51.7-27.3 70.2-18.2 18.6-41.2 27.9-68.8 27.9-17.1 0-33.4-3.9-49-11.6-15.5-7.7-27.3-19.1-35.4-34s-12.2-33.2-12.2-54.6zm50.7 2.6c0 18.5 4.4 32.7 13.2 42.5s19.6 14.8 32.5 14.8c12.9 0 23.7-4.9 32.4-14.8 8.7-9.8 13.1-24.1 13.1-42.9 0-18.3-4.4-32.3-13.1-42.2-8.7-9.8-19.5-14.8-32.4-14.8-12.9 0-23.7 4.9-32.5 14.8s-13.2 24.1-13.2 42.6zm186.9-93.3h27.4v-14.1c0-15.7 1.7-27.4 5-35.2s9.5-14 18.5-18.9c9-4.9 20.3-7.3 34-7.3 14.1 0 27.8 2.1 41.3 6.3l-6.7 34.5c-7.9-1.9-15.4-2.8-22.7-2.8-7.1 0-12.3 1.7-15.4 5-3.1 3.3-4.7 9.8-4.7 19.2v13.2h36.9v38.8H979V940h-49.4V792.3h-27.4v-38.8zm147.7 0h27.4v-14.1c0-15.7 1.7-27.4 5-35.2s9.5-14 18.5-18.9c9-4.9 20.3-7.3 34-7.3 14.1 0 27.8 2.1 41.3 6.3l-6.7 34.5c-7.9-1.9-15.4-2.8-22.7-2.8-7.1 0-12.3 1.7-15.4 5-3.1 3.3-4.7 9.8-4.7 19.2v13.2h36.9v38.8h-36.9V940h-49.4V792.3H1050v-38.8zm277.4 127.2l49.2 8.3c-6.3 18-16.3 31.8-30 41.2-13.7 9.4-30.7 14.2-51.2 14.2-32.5 0-56.5-10.6-72.1-31.8-12.3-17-18.5-38.4-18.5-64.3 0-30.9 8.1-55.2 24.3-72.7 16.2-17.5 36.6-26.3 61.3-26.3 27.8 0 49.7 9.2 65.7 27.5 16.1 18.3 23.7 46.4 23 84.3h-123.8c.4 14.7 4.3 26 12 34.2 7.6 8.1 17.1 12.2 28.5 12.2 7.7 0 14.2-2.1 19.5-6.3s9.4-11.1 12.1-20.5zm2.8-49.9c-.4-14.3-4-25.2-11.1-32.6-7-7.4-15.6-11.2-25.7-11.2-10.8 0-19.7 3.9-26.7 11.8s-10.5 18.5-10.4 32h73.9zm225.3 49.9l49.2 8.3c-6.3 18-16.3 31.8-30 41.2-13.7 9.4-30.7 14.2-51.2 14.2-32.5 0-56.5-10.6-72.1-31.8-12.3-17-18.5-38.4-18.5-64.3 0-30.9 8.1-55.2 24.3-72.7 16.2-17.5 36.6-26.3 61.3-26.3 27.8 0 49.7 9.2 65.7 27.5 16.1 18.3 23.7 46.4 23 84.3h-123.8c.4 14.7 4.3 26 12 34.2 7.6 8.1 17.1 12.2 28.5 12.2 7.7 0 14.2-2.1 19.5-6.3s9.4-11.1 12.1-20.5zm2.8-49.9c-.4-14.3-4-25.2-11.1-32.6-7-7.4-15.6-11.2-25.7-11.2-10.8 0-19.7 3.9-26.7 11.8s-10.5 18.5-10.4 32h73.9z"/>
  <path fill="none" d="M362.5 959.7h1259.2v345.1H362.5z"/>
  <path d="M388.7 1217.4V959.7h83.5c31.6 0 52.3 1.3 61.9 3.9 14.8 3.9 27.1 12.3 37.1 25.2 10 12.9 14.9 29.7 14.9 50.2 0 15.8-2.9 29.1-8.6 39.9-5.7 10.8-13 19.2-21.9 25.4-8.8 6.2-17.8 10.2-27 12.2-12.4 2.5-30.4 3.7-54 3.7h-33.9v97.2h-52zm52-214.1v73.1h28.5c20.5 0 34.2-1.3 41.1-4 6.9-2.7 12.3-6.9 16.3-12.7 3.9-5.7 5.9-12.4 5.9-20 0-9.4-2.8-17.1-8.3-23.2-5.5-6.1-12.5-9.9-20.9-11.4-6.2-1.2-18.7-1.8-37.4-1.8h-25.2zm241.5 214.1h-49.4v-186.7h45.9v26.5c7.8-12.5 14.9-20.8 21.2-24.8 6.3-4 13.4-6 21.4-6 11.2 0 22.1 3.1 32.5 9.3l-15.3 43.1c-8.3-5.4-16.1-8.1-23.2-8.1-6.9 0-12.8 1.9-17.6 5.7-4.8 3.8-8.6 10.7-11.3 20.7-2.8 10-4.1 30.8-4.1 62.6v57.7zm87.9-96c0-16.4 4-32.3 12.1-47.6 8.1-15.4 19.5-27.1 34.4-35.2 14.8-8.1 31.4-12.1 49.7-12.1 28.2 0 51.4 9.2 69.4 27.5 18 18.3 27.1 41.5 27.1 69.5 0 28.2-9.1 51.7-27.3 70.2-18.2 18.6-41.2 27.9-68.8 27.9-17.1 0-33.4-3.9-49-11.6-15.5-7.7-27.3-19.1-35.4-34s-12.2-33.1-12.2-54.6zm50.6 2.7c0 18.5 4.4 32.7 13.2 42.5s19.6 14.8 32.5 14.8c12.9 0 23.7-4.9 32.4-14.8 8.7-9.8 13.1-24.1 13.1-42.9 0-18.3-4.4-32.3-13.1-42.2-8.7-9.8-19.5-14.8-32.4-14.8-12.9 0-23.7 4.9-32.5 14.8s-13.2 24.1-13.2 42.6zm235.5-93.4v180.9c0 23.8-1.6 40.6-4.7 50.4-3.1 9.8-9.1 17.4-17.9 22.9-8.8 5.5-20.1 8.3-33.8 8.3-4.9 0-10.2-.4-15.9-1.3s-11.8-2.2-18.4-4l8.6-42.2c2.3.5 4.5.8 6.6 1.1 2 .3 4 .4 5.7.4 5 0 9.2-1.1 12.4-3.3 3.2-2.2 5.4-4.8 6.4-7.8 1.1-3 1.6-12.2 1.6-27.4v-178.1h49.4zm-49.4-25.3v-45.7h49.4v45.7h-49.4zm215.6 152.6l49.2 8.3c-6.3 18-16.3 31.8-30 41.2-13.7 9.4-30.7 14.2-51.2 14.2-32.5 0-56.5-10.6-72.1-31.8-12.3-17-18.5-38.4-18.5-64.3 0-30.9 8.1-55.2 24.3-72.7 16.2-17.5 36.6-26.3 61.3-26.3 27.8 0 49.7 9.2 65.7 27.5 16.1 18.3 23.7 46.4 23 84.3h-123.8c.4 14.7 4.3 26 12 34.2 7.6 8.1 17.1 12.2 28.5 12.2 7.7 0 14.2-2.1 19.5-6.3s9.4-11.1 12.1-20.5zm2.9-49.9c-.4-14.3-4-25.2-11.1-32.6-7-7.4-15.6-11.2-25.7-11.2-10.8 0-19.7 3.9-26.7 11.8s-10.5 18.5-10.4 32h73.9zm258.5-22.2l-48.7 8.8c-1.6-9.7-5.4-17.1-11.2-22s-13.3-7.4-22.6-7.4c-12.3 0-22.1 4.2-29.4 12.7-7.3 8.5-11 22.7-11 42.6 0 22.1 3.7 37.8 11.2 46.9 7.4 9.1 17.4 13.7 30 13.7 9.4 0 17.1-2.7 23-8 6-5.3 10.2-14.5 12.7-27.5l48.5 8.3c-5 22.3-14.7 39.1-29 50.4-14.3 11.4-33.5 17.1-57.5 17.1-27.3 0-49.1-8.6-65.3-25.8-16.2-17.2-24.3-41.1-24.3-71.5 0-30.8 8.1-54.8 24.4-72 16.3-17.2 38.3-25.8 66.1-25.8 22.7 0 40.8 4.9 54.2 14.7 13.4 9.9 23 24.8 28.9 44.8zm129.5-55.2v39.4h-33.8v75.2c0 15.2.3 24.1 1 26.6.6 2.5 2.1 4.6 4.4 6.2 2.3 1.6 5.1 2.5 8.3 2.5 4.6 0 11.2-1.6 19.9-4.7l4.2 38.3c-11.5 4.9-24.5 7.4-39 7.4-8.9 0-16.9-1.5-24.1-4.5-7.1-3-12.4-6.9-15.7-11.6s-5.7-11.2-6.9-19.2c-1.1-5.7-1.6-17.3-1.6-34.8v-81.4h-22.7v-39.4h22.7v-37.1l49.6-28.8v65.9h33.7z"/>
</svg>
