<?xml version="1.0" standalone="no"?>
<!DOCTYPE svg PUBLIC "-//W3C//DTD SVG 20010904//EN"
 "http://www.w3.org/TR/2001/REC-SVG-20010904/DTD/svg10.dtd">
<svg version="1.0" xmlns="http://www.w3.org/2000/svg"
 width="401.000000pt" height="401.000000pt" viewBox="0 0 401.000000 401.000000"
 preserveAspectRatio="xMidYMid meet">
<metadata>
Created by potrace 1.11, written by Peter Selinger 2001-2013
</metadata>
<g transform="translate(0.000000,401.000000) scale(0.100000,-0.100000)"
fill="#000000" stroke="none">
<path d="M1740 3450 c-241 -34 -480 -127 -596 -232 -35 -32 -65 -73 -86 -116
-30 -61 -33 -74 -31 -152 2 -82 22 -210 40 -259 9 -22 4 -26 -66 -63 -108 -57
-234 -140 -322 -214 -112 -93 -256 -277 -230 -293 7 -5 0 -18 -20 -37 -81 -77
-119 -200 -124 -409 -2 -77 1 -166 6 -198 13 -82 89 -264 143 -345 147 -221
444 -418 756 -501 78 -21 367 -72 525 -92 193 -25 534 8 833 82 223 55 338 98
454 172 54 34 138 87 187 118 66 41 114 82 181 155 153 165 233 293 286 454
25 77 28 99 28 235 1 130 -2 160 -22 225 -32 102 -90 211 -158 295 -73 91 -77
100 -59 115 10 8 15 31 15 64 0 81 -17 126 -65 173 -49 46 -65 51 -340 99
-188 33 -212 47 -198 111 4 21 8 81 8 133 0 84 -3 102 -28 152 -73 148 -282
268 -551 314 -107 18 -469 27 -566 14z m553 -59 c215 -43 375 -118 471 -221
61 -65 76 -103 76 -190 0 -80 -10 -106 -75 -190 -59 -76 -85 -132 -85 -181 l0
-42 26 24 c14 13 32 36 40 52 18 33 31 35 36 5 2 -16 -9 -33 -36 -58 -39 -35
-75 -103 -102 -190 -17 -55 -17 -50 -1 -50 6 0 33 29 59 64 82 111 141 125
348 82 163 -33 196 -44 227 -70 24 -21 28 -31 27 -78 0 -32 -15 -97 -37 -165
-43 -131 -44 -137 -17 -130 30 8 25 -5 -22 -58 -50 -56 -122 -93 -298 -150
-89 -30 -136 -39 -209 -43 l-93 -4 -20 -45 c-11 -25 -17 -47 -15 -50 3 -2 18
5 34 16 17 13 87 34 183 56 282 64 360 96 449 186 87 86 151 227 151 331 0 72
-20 121 -68 171 l-36 37 34 0 c31 0 33 1 19 16 -18 18 -315 74 -391 74 -88 0
-146 42 -170 122 -9 32 -9 44 5 71 l16 32 0 -32 c1 -31 30 -73 49 -73 28 0
434 -71 458 -80 76 -29 106 -85 112 -210 l5 -95 64 -92 c181 -260 212 -490
105 -767 -52 -134 -191 -314 -331 -432 -379 -318 -1131 -473 -1762 -364 -506
87 -918 338 -1075 655 -98 199 -97 381 7 704 36 112 94 195 223 319 122 117
346 258 398 250 31 -4 48 -65 58 -203 5 -66 22 -205 39 -310 17 -104 31 -194
31 -200 1 -5 8 4 17 20 23 42 20 125 -11 289 -14 77 -26 146 -26 155 0 8 32
-19 70 -61 76 -83 150 -128 208 -128 33 0 33 1 -44 56 -154 109 -218 190 -258
323 -26 90 -9 92 123 16 129 -73 156 -83 253 -94 46 -6 133 -22 193 -37 94
-22 123 -25 195 -20 47 4 147 11 222 16 76 5 146 13 155 19 16 8 13 12 -19 25
-21 9 -48 16 -60 17 -45 1 32 26 167 53 72 15 140 29 152 31 29 7 103 84 103
107 0 10 -3 18 -6 18 -4 0 -45 -15 -93 -34 -192 -77 -385 -116 -575 -116 -135
0 -363 25 -463 50 -150 39 -344 156 -401 243 -23 35 -27 51 -27 116 0 95 26
154 100 226 64 63 236 157 210 115 -4 -6 -25 -20 -48 -32 -60 -30 -174 -135
-205 -188 -55 -94 -28 -197 80 -302 138 -134 501 -218 823 -189 301 27 512 96
636 208 21 19 42 32 47 29 16 -9 80 61 91 100 32 114 -7 188 -146 280 -156
103 -342 178 -463 188 -186 15 -303 17 -395 7 -55 -6 -118 -14 -140 -16 l-40
-5 44 15 c121 40 437 43 624 6z m-273 -11 c51 -7 49 -7 -38 -9 -60 0 -91 3
-87 9 7 11 45 11 125 0z m-443 -26 c-3 -3 -12 -4 -19 -1 -8 3 -5 6 6 6 11 1
17 -2 13 -5z m758 -71 c69 -22 166 -71 259 -132 43 -28 86 -51 96 -51 23 0 61
-42 62 -71 1 -13 1 -40 -1 -59 l-2 -35 -19 24 c-11 13 -20 29 -20 36 0 25
-123 125 -209 169 -47 24 -135 60 -196 80 -149 50 -145 47 -115 56 31 9 80 4
145 -17z m-721 11 c15 -6 15 -8 -1 -20 -10 -7 -31 -14 -46 -14 -44 0 -94 -28
-129 -72 -18 -23 -51 -48 -77 -60 -68 -29 -108 -63 -141 -121 -40 -70 -38 -75
12 -21 67 73 118 103 210 123 46 10 106 28 133 39 87 34 460 48 602 22 81 -15
194 -54 243 -83 44 -26 227 -194 235 -215 8 -21 -38 -67 -59 -59 -9 4 -24 21
-34 38 -46 85 -100 155 -141 183 -25 17 -55 41 -67 54 -18 18 -39 25 -96 32
-40 5 -102 16 -138 25 -73 19 -161 16 -298 -10 -144 -28 -227 -63 -330 -140
-79 -60 -112 -107 -112 -160 0 -46 17 -70 79 -114 35 -25 40 -32 27 -37 -36
-14 -100 17 -163 80 -35 33 -63 67 -63 74 0 25 59 128 92 158 37 35 47 39 213
90 141 42 167 59 80 49 -72 -8 -257 -69 -302 -98 -18 -12 -47 -46 -65 -75 -59
-93 -63 -98 -83 -82 -33 28 -47 71 -43 132 4 55 8 62 55 110 58 58 94 63 44 6
-36 -41 -27 -61 10 -22 32 34 237 175 269 185 32 9 64 11 84 3z m-204 -42 c0
-4 -20 -18 -45 -30 -57 -27 -58 -21 -2 12 47 29 47 29 47 18z m720 -227 c36
-8 49 -12 30 -10 -19 3 -118 8 -220 12 -120 5 -173 10 -150 15 51 10 265 0
340 -17z m485 -1 c14 -6 45 -53 45 -70 0 -10 -29 16 -51 48 -21 29 -21 32 6
22z m-545 -132 c0 -11 -58 -34 -72 -29 -8 2 0 11 17 20 33 18 55 21 55 9z
m-120 -432 c17 -5 -1 -8 -57 -9 -49 -1 -83 3 -83 9 0 12 103 12 140 0z m1365
-325 c-15 -41 -30 -73 -33 -70 -3 2 8 38 24 79 15 41 30 73 32 71 3 -2 -8 -38
-23 -80z"/>
<path d="M3465 2218 c104 -170 149 -303 148 -433 -1 -151 -39 -266 -134 -408
-50 -74 -55 -85 -31 -68 43 30 79 82 122 174 54 115 73 195 73 307 1 145 -45
271 -148 408 -54 72 -68 81 -30 20z"/>
<path d="M587 2179 c-52 -60 -107 -161 -107 -198 0 -19 21 9 80 108 45 73 79
135 77 138 -3 2 -25 -19 -50 -48z"/>
<path d="M3111 2034 c-106 -68 -178 -95 -267 -101 -58 -5 -71 -3 -71 9 0 28
-25 108 -34 108 -12 0 -11 -94 1 -106 7 -7 -2 -9 -25 -6 -30 4 -35 1 -35 -16
0 -37 24 -45 118 -39 117 8 270 63 342 124 33 27 76 84 63 82 -4 -1 -46 -25
-92 -55z"/>
<path d="M757 1973 c-3 -5 -15 -53 -27 -107 -18 -78 -20 -104 -11 -118 9 -14
8 -25 -4 -48 -9 -17 -17 -30 -20 -30 -2 0 -20 10 -40 21 -20 12 -39 18 -43 14
-4 -3 2 -11 13 -17 11 -6 30 -22 43 -35 19 -19 27 -22 39 -12 24 20 42 64 36
87 -3 13 3 36 16 57 17 29 21 53 21 116 0 69 -9 96 -23 72z"/>
<path d="M2707 1853 c-15 -14 -6 -24 16 -18 35 11 44 25 16 25 -14 0 -29 -3
-32 -7z"/>
<path d="M1294 1654 c5 -10 13 -31 18 -47 6 -15 20 -30 33 -33 18 -5 26 -17
36 -57 28 -120 94 -204 204 -258 76 -37 119 -36 148 3 12 15 18 30 15 33 -2 3
-25 1 -50 -3 -59 -12 -75 -4 -154 71 -92 87 -69 112 62 67 234 -81 444 -85
658 -12 96 32 129 52 114 68 -3 2 -61 -10 -129 -27 -93 -23 -156 -32 -254 -36
-222 -10 -365 32 -561 162 -130 87 -151 97 -140 69z"/>
<path d="M490 1440 c0 -24 163 -280 206 -324 44 -44 188 -146 207 -146 21 0
-3 26 -95 106 -133 113 -145 124 -131 124 6 0 45 -29 87 -65 97 -81 108 -88
138 -75 19 9 46 2 146 -35 126 -46 152 -52 152 -35 0 13 -72 43 -225 96 -152
52 -193 75 -260 143 -46 48 -75 64 -75 41 0 -17 -20 -11 -28 8 -14 34 -86 157
-96 164 -15 11 -26 10 -26 -2z"/>
<path d="M676 1442 c-3 -5 36 -46 86 -91 67 -61 96 -81 111 -77 11 2 30 -2 43
-11 13 -8 28 -13 35 -11 9 3 -250 198 -264 198 -3 0 -8 -4 -11 -8z"/>
<path d="M642 1409 c19 -51 83 -132 114 -145 62 -26 60 -14 -11 59 -81 85
-112 111 -103 86z"/>
<path d="M1000 1197 c0 -18 76 -90 90 -85 7 2 -6 24 -30 51 -42 48 -60 58 -60
34z"/>
<path d="M2490 743 c-19 -3 -39 -9 -45 -15 -7 -7 2 -9 30 -4 22 3 46 6 53 6 6
0 12 5 12 10 0 6 -3 9 -7 8 -5 0 -24 -3 -43 -5z"/>
<path d="M2043 683 c15 -2 37 -2 50 0 12 2 0 4 -28 4 -27 0 -38 -2 -22 -4z"/>
</g>
</svg>
